<svg width="128" height="128" viewBox="0 0 128 128" xmlns="http://www.w3.org/2000/svg">
  <defs>
    <linearGradient id="bgGradient" x1="0%" y1="0%" x2="100%" y2="100%">
      <stop offset="0%" style="stop-color:#667eea;stop-opacity:1" />
      <stop offset="100%" style="stop-color:#764ba2;stop-opacity:1" />
    </linearGradient>
    <linearGradient id="iconGradient" x1="0%" y1="0%" x2="100%" y2="100%">
      <stop offset="0%" style="stop-color:#ffffff;stop-opacity:1" />
      <stop offset="100%" style="stop-color:#f8f9fa;stop-opacity:1" />
    </linearGradient>
  </defs>
  
  <!-- Background circle -->
  <circle cx="64" cy="64" r="56" fill="url(#bgGradient)" stroke="#ffffff" stroke-width="4"/>
  
  <!-- Clipboard base -->
  <rect x="35" y="25" width="58" height="78" rx="6" fill="url(#iconGradient)" stroke="#667eea" stroke-width="2"/>
  
  <!-- Clipboard clip -->
  <rect x="48" y="20" width="32" height="12" rx="6" fill="#667eea"/>
  <rect x="52" y="22" width="24" height="8" rx="4" fill="url(#iconGradient)"/>
  
  <!-- Document lines -->
  <line x1="45" y1="45" x2="75" y2="45" stroke="#667eea" stroke-width="2" stroke-linecap="round"/>
  <line x1="45" y1="55" x2="83" y2="55" stroke="#667eea" stroke-width="2" stroke-linecap="round"/>
  <line x1="45" y1="65" x2="78" y2="65" stroke="#667eea" stroke-width="2" stroke-linecap="round"/>
  <line x1="45" y1="75" x2="70" y2="75" stroke="#667eea" stroke-width="2" stroke-linecap="round"/>
  
  <!-- Checkmark -->
  <circle cx="50" cy="85" r="8" fill="#28a745"/>
  <path d="M46 85 L49 88 L54 82" stroke="white" stroke-width="2" fill="none" stroke-linecap="round" stroke-linejoin="round"/>
  
  <!-- Plus icon for tracking -->
  <circle cx="78" cy="85" r="8" fill="#007bff"/>
  <line x1="75" y1="85" x2="81" y2="85" stroke="white" stroke-width="2" stroke-linecap="round"/>
  <line x1="78" y1="82" x2="78" y2="88" stroke="white" stroke-width="2" stroke-linecap="round"/>
</svg>